<svg xmlns="http://www.w3.org/2000/svg" viewBox="0 0 481.89 480.76"><defs><style>.cls-1{fill:#394156;}</style></defs><g id="Layer_2" data-name="Layer 2"><g id="Layer_1-2" data-name="Layer 1"><circle class="cls-1" cx="240.41" cy="22.06" r="22.06"/><path class="cls-1" d="M239.69,139.45C237.54,119.05,231,85.33,209.51,74c-3.77-2-12.66-5.73-14.18-3.63-2.25,3.08,13.83,15.39,11.63,18.91-2.65,4.24-32.15-4-32.73-15.64-.24-4.79,4.53-8.61,9.82-12.73C190.37,56,202.83,48.1,223,46a26.38,26.38,0,0,0,16.36,6.55,26.75,26.75,0,0,0,18.55-6.91,74.58,74.58,0,0,1,28.64,8.71c8,4.37,20.58,11.25,20.06,19.29-.77,12-30.09,19.81-32.73,15.64-2.21-3.49,13.86-15.87,11.64-18.91-1.56-2.14-11,1.85-15.79,4.54C248.29,87,241.77,118.25,239.69,139.45Z"/><circle class="cls-1" cx="22.06" cy="238.61" r="22.06"/><path class="cls-1" d="M139.45,239.33C119.05,241.49,85.33,248,74,269.51c-2,3.77-5.73,12.66-3.63,14.19,3.08,2.24,15.39-13.84,18.91-11.64,4.24,2.66-4,32.15-15.64,32.73C68.83,305,65,300.26,60.89,295,56,288.65,48.1,276.19,46,256.06a26.41,26.41,0,0,0,6.55-16.37,26.77,26.77,0,0,0-6.91-18.55,74.63,74.63,0,0,1,8.71-28.64c4.37-8,11.25-20.57,19.29-20.06,12,.77,19.81,30.09,15.64,32.73-3.49,2.21-15.87-13.85-18.91-11.64-2.14,1.56,1.85,11,4.54,15.79C87,230.73,118.25,237.25,139.45,239.33Z"/><circle class="cls-1" cx="240.37" cy="458.7" r="22.06"/><path class="cls-1" d="M241.09,341.32c2.16,20.39,8.65,54.11,30.19,65.46,3.77,2,12.65,5.74,14.18,3.64,2.24-3.09-13.84-15.4-11.64-18.92,2.66-4.24,32.15,4.05,32.73,15.64.24,4.79-4.53,8.61-9.82,12.73-6.32,4.93-18.78,12.79-38.91,14.91a26,26,0,0,0-34.91.37,74.76,74.76,0,0,1-28.64-8.72c-8-4.36-20.58-11.24-20.07-19.29.77-12,30.09-19.81,32.73-15.64,2.21,3.49-13.85,15.88-11.63,18.92,1.56,2.13,11-1.86,15.78-4.55C232.5,393.78,239,362.52,241.09,341.32Z"/><circle class="cls-1" cx="459.83" cy="238.61" r="22.06"/><path class="cls-1" d="M342.44,237.9c20.4-2.16,54.12-8.66,65.47-30.19,2-3.77,5.73-12.65,3.63-14.18-3.08-2.24-15.39,13.84-18.91,11.64-4.24-2.66,4-32.15,15.64-32.73,4.79-.24,8.61,4.53,12.73,9.81,4.92,6.33,12.79,18.79,14.91,38.92a26.41,26.41,0,0,0-6.55,16.36,26.75,26.75,0,0,0,6.91,18.55,74.58,74.58,0,0,1-8.71,28.64c-4.37,8-11.25,20.58-19.29,20.06-12-.76-19.81-30.09-15.64-32.73,3.49-2.2,15.87,13.86,18.91,11.64,2.14-1.56-1.85-11-4.54-15.79C394.9,246.49,363.64,240,342.44,237.9Z"/><circle class="cls-1" cx="392.05" cy="86.93" r="22.06"/><path class="cls-1" d="M308.54,169.43c12.9-16,32.15-44.38,24.95-67.63-1.27-4.07-4.9-13-7.46-12.6-3.77.59-1.1,20.67-5.15,21.6C316,111.92,301,85.21,308.8,76.6c3.22-3.56,9.29-2.89,15.94-2.06,7.95,1,22.32,4.24,38.06,17a26,26,0,0,0,24.95,24.43,74.9,74.9,0,0,1,14.09,26.41c2.56,8.74,6.59,22.51.54,27.83-9,7.92-35.28-7.27-34.2-12.09.91-4,21-1.42,21.6-5.14.41-2.61-9.11-6.49-14.37-7.95C351.71,138.41,325,155.91,308.54,169.43Z"/><circle class="cls-1" cx="88.7" cy="86.97" r="22.06"/><path class="cls-1" d="M171.19,170.48c-15.94-12.89-44.38-32.15-67.63-24.94-4.07,1.26-13,4.89-12.6,7.45.6,3.77,20.67,1.11,21.6,5.15C113.68,163,87,178,78.36,170.22c-3.56-3.21-2.88-9.29-2.06-15.94,1-7.95,4.24-22.32,17-38.06a26.45,26.45,0,0,0,16.2-6.94,26.72,26.72,0,0,0,8.23-18,74.71,74.71,0,0,1,26.42-14.09c8.73-2.57,22.5-6.6,27.82-.55,7.92,9-7.26,35.29-12.08,34.2-4-.9-1.43-21-5.15-21.6-2.61-.41-6.48,9.11-8,14.37C140.17,127.31,157.67,154,171.19,170.48Z"/><circle class="cls-1" cx="85" cy="393.72" r="22.06"/><path class="cls-1" d="M168.51,311.22c-12.89,15.95-32.15,44.39-24.94,67.64,1.26,4.07,4.89,13,7.45,12.6,3.77-.6,1.11-20.68,5.15-21.61,4.88-1.12,19.87,25.6,12.08,34.21-3.22,3.55-9.29,2.88-15.94,2.05-7.95-1-22.32-4.24-38.06-17a26,26,0,0,0-24.94-24.43A74.48,74.48,0,0,1,75.22,338.3c-2.57-8.74-6.6-22.5-.55-27.83,9-7.92,35.28,7.27,34.2,12.09-.9,4-21,1.42-21.6,5.14-.41,2.61,9.11,6.49,14.37,7.95C125.34,342.24,152.05,324.75,168.51,311.22Z"/><circle class="cls-1" cx="396.25" cy="393.68" r="22.06"/><path class="cls-1" d="M313.75,310.17c15.95,12.9,44.39,32.15,67.63,24.95,4.07-1.27,13-4.9,12.6-7.46-.59-3.77-20.67-1.1-21.6-5.14-1.12-4.88,25.59-19.88,34.2-12.09,3.56,3.22,2.89,9.29,2.06,15.94-1,8-4.24,22.33-17,38.06a26,26,0,0,0-24.43,24.95,74.9,74.9,0,0,1-26.41,14.09c-8.74,2.56-22.51,6.59-27.83.54-7.92-9,7.27-35.28,12.09-34.2,4,.91,1.42,21,5.14,21.6,2.61.41,6.49-9.11,7.95-14.37C344.77,353.34,327.27,326.63,313.75,310.17Z"/></g></g></svg>